<svg fill="none" height="78" viewBox="0 0 141 78" width="141" xmlns="http://www.w3.org/2000/svg" xmlns:xlink="http://www.w3.org/1999/xlink"><clipPath id="a-mega"><path d="m0 0h141v78h-141z"/></clipPath><g clip-path="url(#a-mega)"><path clip-rule="evenodd" d="m138 19.4056c2.961 3.1363 2.493 2.5221 2.493 2.5221.28.2129.507.6657.507 1.0239v46.4341c0 .3526-.147.884-.366 1.1767 0 0 .338-.2172-2.634 3.0217v3.115c0 .7185-.588 1.3009-1.303 1.3009h-135.39454c-.719327 0-1.30246-.583-1.30246-1.2888v-75.42244c0-.711763.586573-1.28876 1.30039-1.28876h134.03261c2.667 2.37556.264.00000024 2.667 2.66667z" fill="#000" fill-rule="evenodd"/></g></svg>
